<svg xmlns="http://www.w3.org/2000/svg" viewBox="0 0 978.36 396.19"><defs><style>.cls-1{fill:#05509d;}.cls-2{fill:#fff;}.cls-3{fill:#feca04;fill-rule:evenodd;}</style></defs><g id="Camada_2" data-name="Camada 2"><g id="Camada_1-2" data-name="Camada 1"><path class="cls-1" d="M220.9,199.16A110.45,110.45,0,1,1,110.45,88.71,110.45,110.45,0,0,1,220.9,199.16"/><path class="cls-2" d="M964.09,123H884.31a6,6,0,0,1-6-6V94.9c0-13.15-1.21-21.56-3.53-25.16s-6.26-5.37-11.78-5.37c-5.92,0-10.43,2.4-13.47,7.29S845,83.84,845,93.7c0,12.67,1.67,22.28,5.13,28.71,3.28,6.4,12.66,14.1,28,23.24q66,39.19,83.12,64.28t17.16,81q0,40.65-9.55,59.87T932.1,383.14c-18.19,8.64-39.28,13.05-63.4,13.05Q829,396.19,801,381.1t-36.8-38.25q-8.65-23.28-8.66-66V258a6,6,0,0,1,6-6h79.8a6,6,0,0,1,6,6v40.25c0,14.25,1.29,23.39,3.86,27.48s7.21,6.09,13.78,6.09,11.47-2.57,14.67-7.76,4.81-12.83,4.81-23c0-22.34-3.06-37-9.15-43.9S853.55,238.79,829,222.67c-24.62-16.34-40.89-28.12-48.9-35.52s-14.58-17.55-19.79-30.54-7.86-29.57-7.86-49.76q0-43.65,11.13-63.89C771,29.49,783,19,799.6,11.36,816.19,3.86,836.23,0,859.72,0q38.61,0,65.65,12.43c18.11,8.33,30.06,18.76,36,31.41s8.75,34,8.75,64.2v9a5.94,5.94,0,0,1-6,6"/><path class="cls-2" d="M734.24,6.23V73.06c0,3.2-2.9,6.47-6.26,6.21h-54.9V390a6.15,6.15,0,0,1-6.26,6.19H576.3a6.18,6.18,0,0,1-6.21-6.22V79.27H515.34a6.18,6.18,0,0,1-6.24-6.18V6.26A6.23,6.23,0,0,1,515.34,0L728,0a6.2,6.2,0,0,1,6.24,6.21"/><path class="cls-2" d="M341.47,241.79V390a6.17,6.17,0,0,1-6.19,6.23H261.54a6.27,6.27,0,0,1-6.21-6.23V284.41ZM485.4,6.24V389.92a6.3,6.3,0,0,1-6.28,6.26H399.26a6.27,6.27,0,0,1-5.41-4.17L348.13,238.48l68.24-33.79c4.52-2.35,4.3-10.4-.07-12.76l-161-79V6.26A6.17,6.17,0,0,1,261.58,0h75.3a6.27,6.27,0,0,1,5.91,4.12l56.47,174.29V6.26A6.14,6.14,0,0,1,405.42,0H479.1a6.23,6.23,0,0,1,6.3,6.22"/><path class="cls-3" d="M110,51.3c94.05,46.12,198.15,96.92,292.22,143,3.23,2.18,2.31,7,0,8.11L110,347.45v-29.6c66.15-1,119.47-53.86,119.47-118.81S176.15,81.27,110,80.19Z"/><path class="cls-2" d="M116.86,45.05,214,92.69l0-86.43A6.24,6.24,0,0,0,207.75,0H116.22A6.2,6.2,0,0,0,110,6.26V41.6Z"/></g></g></svg>