<svg xmlns="http://www.w3.org/2000/svg" xmlns:xlink="http://www.w3.org/1999/xlink" viewBox="0 0 396.95 76.51"><defs><style>.cls-1{fill:none;}.cls-2{clip-path:url(#clip-path);}.cls-3{fill:#057032;}.cls-4{fill:#05509d;}.cls-5{fill:#feca04;fill-rule:evenodd;}.cls-6{fill:#fff;}</style><clipPath id="clip-path" transform="translate(-15.81 -8.36)"><rect class="cls-1" width="429.06" height="93.22"/></clipPath></defs><g id="Camada_2" data-name="Camada 2"><g id="Camada_1-2" data-name="Camada 1"><g class="cls-2"><rect class="cls-3" x="192.3" width="1.08" height="76.51"/><rect class="cls-3" x="209.96" y="19.14" width="1.98" height="14.84"/><g class="cls-2"><path class="cls-3" d="M232.27,31.59v1.7h0a3.72,3.72,0,0,1,3.49-1.95,4.55,4.55,0,0,1,1.77.29,2.82,2.82,0,0,1,1.14.81,3.09,3.09,0,0,1,.62,1.24,7,7,0,0,1,.17,1.59v7.06h-1.77V35.06a2.12,2.12,0,0,0-.58-1.58,2.15,2.15,0,0,0-1.6-.58,3.5,3.5,0,0,0-1.4.25,2.55,2.55,0,0,0-1,.7,3.1,3.1,0,0,0-.59,1.07,4.43,4.43,0,0,0-.2,1.34v6.07H230.6V31.59Z" transform="translate(-15.81 -8.36)"/><path class="cls-3" d="M243.46,39.93a1.92,1.92,0,0,0,.65.65,3,3,0,0,0,.92.34,5.19,5.19,0,0,0,1.05.1A6.58,6.58,0,0,0,247,41a3,3,0,0,0,.84-.23,1.55,1.55,0,0,0,.64-.49,1.31,1.31,0,0,0,.25-.82,1.21,1.21,0,0,0-.52-1,4.75,4.75,0,0,0-1.3-.57c-.52-.14-1.09-.27-1.7-.39a9.27,9.27,0,0,1-1.69-.5,3.59,3.59,0,0,1-1.3-.91,2.32,2.32,0,0,1-.52-1.62A2.51,2.51,0,0,1,242,33a3,3,0,0,1,.93-1,4.39,4.39,0,0,1,1.29-.54,6.33,6.33,0,0,1,1.42-.17,8.93,8.93,0,0,1,1.69.15,4.21,4.21,0,0,1,1.36.54,2.86,2.86,0,0,1,.94,1,3.87,3.87,0,0,1,.42,1.63H248.3a1.75,1.75,0,0,0-.27-.86,1.7,1.7,0,0,0-.58-.55,2.63,2.63,0,0,0-.78-.3,4.12,4.12,0,0,0-.86-.09,5.49,5.49,0,0,0-.8.06,2.46,2.46,0,0,0-.74.22,1.49,1.49,0,0,0-.54.41,1.06,1.06,0,0,0-.21.68,1,1,0,0,0,.32.76,2.77,2.77,0,0,0,.83.5,7.12,7.12,0,0,0,1.12.33l1.24.28a13,13,0,0,1,1.3.35,4.24,4.24,0,0,1,1.13.55,2.75,2.75,0,0,1,.79.87,2.5,2.5,0,0,1,.3,1.28,3,3,0,0,1-.41,1.63,3.17,3.17,0,0,1-1.06,1,4.4,4.4,0,0,1-1.47.56,9.07,9.07,0,0,1-1.63.15,7.29,7.29,0,0,1-1.71-.19,3.92,3.92,0,0,1-1.43-.61,3.09,3.09,0,0,1-1-1.12,3.94,3.94,0,0,1-.42-1.7h1.77a1.92,1.92,0,0,0,.27,1" transform="translate(-15.81 -8.36)"/><path class="cls-3" d="M257,31.59v1.56h-2.14v6.67a1.75,1.75,0,0,0,0,.5.5.5,0,0,0,.2.29.82.82,0,0,0,.4.13,6.13,6.13,0,0,0,.68,0H257v1.56h-1.35a6.67,6.67,0,0,1-1.18-.09,1.79,1.79,0,0,1-.79-.34,1.5,1.5,0,0,1-.45-.71A4.36,4.36,0,0,1,253.1,40V33.15h-1.83V31.59h1.83V28.36h1.77v3.23Z" transform="translate(-15.81 -8.36)"/><path class="cls-3" d="M258.85,27.49h1.76v2.16h-1.76Zm1.76,14.84h-1.76V31.59h1.76Z" transform="translate(-15.81 -8.36)"/><path class="cls-3" d="M267.85,31.59v1.56H265.7v6.67a1.7,1.7,0,0,0,.06.5.53.53,0,0,0,.19.29.9.9,0,0,0,.41.13,6.06,6.06,0,0,0,.67,0h.82v1.56h-1.36a6.63,6.63,0,0,1-1.17-.09,1.74,1.74,0,0,1-.79-.34,1.5,1.5,0,0,1-.45-.71,4.36,4.36,0,0,1-.14-1.21V33.15h-1.83V31.59h1.83V28.36h1.76v3.23Z" transform="translate(-15.81 -8.36)"/><path class="cls-3" d="M276.75,42.33v-1.7h-.05a3.59,3.59,0,0,1-1.43,1.46,4.21,4.21,0,0,1-2.06.47,4.83,4.83,0,0,1-1.77-.28,2.8,2.8,0,0,1-1.14-.8,3,3,0,0,1-.61-1.24,6.44,6.44,0,0,1-.18-1.59V31.59h1.77v7.27a2.12,2.12,0,0,0,.58,1.58,2.15,2.15,0,0,0,1.6.58,3.5,3.5,0,0,0,1.4-.25,2.55,2.55,0,0,0,1-.7,3.1,3.1,0,0,0,.59-1.07,4.14,4.14,0,0,0,.2-1.34V31.59h1.77V42.33Z" transform="translate(-15.81 -8.36)"/><path class="cls-3" d="M285.59,31.59v1.56h-2.15v6.67a1.7,1.7,0,0,0,.06.5.53.53,0,0,0,.19.29.9.9,0,0,0,.41.13,6.06,6.06,0,0,0,.67,0h.82v1.56h-1.36a6.63,6.63,0,0,1-1.17-.09,1.74,1.74,0,0,1-.79-.34,1.5,1.5,0,0,1-.45-.71,4.36,4.36,0,0,1-.14-1.21V33.15h-1.83V31.59h1.83V28.36h1.76v3.23Z" transform="translate(-15.81 -8.36)"/><path class="cls-3" d="M286.82,34.76a5.22,5.22,0,0,1,1-1.79,4.71,4.71,0,0,1,1.64-1.2,6.13,6.13,0,0,1,4.51,0A4.77,4.77,0,0,1,295.6,33a5,5,0,0,1,1,1.79,7.32,7.32,0,0,1,0,4.41,5,5,0,0,1-1,1.78A4.74,4.74,0,0,1,294,42.14a6.26,6.26,0,0,1-4.51,0A4.69,4.69,0,0,1,287.82,41a5.17,5.17,0,0,1-1-1.78,7.53,7.53,0,0,1,0-4.41m1.8,4a3.68,3.68,0,0,0,.72,1.26,3,3,0,0,0,1.07.78,3.26,3.26,0,0,0,2.6,0,3.14,3.14,0,0,0,1.07-.78,3.85,3.85,0,0,0,.72-1.26,6,6,0,0,0,0-3.48,3.9,3.9,0,0,0-.72-1.27,3,3,0,0,0-1.07-.79,3.26,3.26,0,0,0-2.6,0,3,3,0,0,0-1.07.79,3.73,3.73,0,0,0-.72,1.27,6,6,0,0,0,0,3.48" transform="translate(-15.81 -8.36)"/><polygon class="cls-3" points="291.35 19.14 299.16 31.17 299.2 31.17 299.2 19.14 301.07 19.14 301.07 33.98 298.91 33.98 291.16 22.07 291.12 22.07 291.12 33.98 289.25 33.98 289.25 19.14 291.35 19.14"/><path class="cls-3" d="M329.24,42.29a2.52,2.52,0,0,1-1.27.27,1.54,1.54,0,0,1-1.09-.38,1.69,1.69,0,0,1-.41-1.26,4.27,4.27,0,0,1-1.69,1.26,5.75,5.75,0,0,1-2.09.38,5.56,5.56,0,0,1-1.38-.16,3.51,3.51,0,0,1-1.14-.52,2.45,2.45,0,0,1-.75-.93,3.06,3.06,0,0,1-.29-1.38,3.15,3.15,0,0,1,.32-1.5,2.58,2.58,0,0,1,.82-.94,3.46,3.46,0,0,1,1.16-.55c.44-.13.88-.23,1.34-.32s1-.17,1.38-.21a7.84,7.84,0,0,0,1.16-.21,1.9,1.9,0,0,0,.79-.4,1,1,0,0,0,.29-.76,1.71,1.71,0,0,0-.22-.93,1.45,1.45,0,0,0-.56-.54,2.18,2.18,0,0,0-.77-.25,6,6,0,0,0-.84-.06,3.78,3.78,0,0,0-1.87.42,1.81,1.81,0,0,0-.81,1.61h-1.77a3.85,3.85,0,0,1,.42-1.68,3,3,0,0,1,1-1.11,4.2,4.2,0,0,1,1.43-.62,7.73,7.73,0,0,1,1.71-.18,10,10,0,0,1,1.45.1,3.76,3.76,0,0,1,1.3.43,2.43,2.43,0,0,1,.93.9,2.84,2.84,0,0,1,.36,1.51V39.8a4,4,0,0,0,.07.91c.05.2.21.29.49.29a2.43,2.43,0,0,0,.54-.08Zm-2.87-5.51a2,2,0,0,1-.88.36c-.35.08-.73.14-1.13.19s-.79.1-1.19.17a4,4,0,0,0-1.08.3,1.84,1.84,0,0,0-.78.59,1.63,1.63,0,0,0-.3,1,1.34,1.34,0,0,0,.63,1.22,1.72,1.72,0,0,0,.65.27,3.42,3.42,0,0,0,.79.08,4.14,4.14,0,0,0,1.5-.24,3,3,0,0,0,1-.59,2.47,2.47,0,0,0,.58-.79,1.9,1.9,0,0,0,.19-.8Z" transform="translate(-15.81 -8.36)"/><path class="cls-3" d="M337.19,33.46a2.67,2.67,0,0,0-1.79-.56,3.24,3.24,0,0,0-1.6.35,2.83,2.83,0,0,0-1,.94,3.75,3.75,0,0,0-.55,1.34,7.26,7.26,0,0,0-.17,1.57,5.88,5.88,0,0,0,.18,1.45,4,4,0,0,0,.55,1.26,2.77,2.77,0,0,0,1,.88,2.93,2.93,0,0,0,1.43.33,2.87,2.87,0,0,0,2.05-.68,3.1,3.1,0,0,0,.9-1.94H340a5,5,0,0,1-1.48,3.08,4.7,4.7,0,0,1-3.26,1.08,5.67,5.67,0,0,1-2.17-.39A4.23,4.23,0,0,1,331.46,41a4.93,4.93,0,0,1-1-1.73,7.37,7.37,0,0,1-.32-2.21,7.81,7.81,0,0,1,.32-2.26,5.13,5.13,0,0,1,.94-1.83A4.42,4.42,0,0,1,333,31.78a5.33,5.33,0,0,1,2.22-.44,6.33,6.33,0,0,1,1.72.22,4.18,4.18,0,0,1,1.41.67,3.73,3.73,0,0,1,1,1.15,4.37,4.37,0,0,1,.5,1.66h-1.83a2.7,2.7,0,0,0-.87-1.58" transform="translate(-15.81 -8.36)"/><path class="cls-3" d="M341.92,27.49h1.77v2.16h-1.77Zm1.77,14.84h-1.77V31.59h1.77Z" transform="translate(-15.81 -8.36)"/><path class="cls-3" d="M346.1,34.76a4.91,4.91,0,0,1,1-1.79,4.62,4.62,0,0,1,1.64-1.2,6.1,6.1,0,0,1,4.5,0,4.58,4.58,0,0,1,1.63,1.2,4.91,4.91,0,0,1,1,1.79,7.53,7.53,0,0,1,0,4.41,4.87,4.87,0,0,1-1,1.78,4.56,4.56,0,0,1-1.63,1.19,6.24,6.24,0,0,1-4.5,0A4.6,4.6,0,0,1,347.1,41a4.87,4.87,0,0,1-1-1.78,7.53,7.53,0,0,1,0-4.41m1.8,4a3.53,3.53,0,0,0,.72,1.26,3,3,0,0,0,1.07.78A3.15,3.15,0,0,0,351,41,3.14,3.14,0,0,0,353.36,40a3.67,3.67,0,0,0,.71-1.26,6,6,0,0,0,0-3.48,3.71,3.71,0,0,0-.71-1.27,3.13,3.13,0,0,0-1.07-.79,3.22,3.22,0,0,0-1.3-.27,3.15,3.15,0,0,0-1.3.27,3,3,0,0,0-1.07.79,3.57,3.57,0,0,0-.72,1.27,6,6,0,0,0,0,3.48" transform="translate(-15.81 -8.36)"/><path class="cls-3" d="M359.88,31.59v1.7h0a3.73,3.73,0,0,1,3.49-1.95,4.55,4.55,0,0,1,1.77.29,2.82,2.82,0,0,1,1.14.81,3,3,0,0,1,.62,1.24,6.46,6.46,0,0,1,.17,1.59v7.06h-1.76V35.06a2,2,0,0,0-2.19-2.16,3.54,3.54,0,0,0-1.4.25,2.59,2.59,0,0,0-1,.7,3,3,0,0,0-.6,1.07,4.43,4.43,0,0,0-.2,1.34v6.07h-1.76V31.59Z" transform="translate(-15.81 -8.36)"/><path class="cls-3" d="M379.19,42.29a2.52,2.52,0,0,1-1.27.27,1.54,1.54,0,0,1-1.09-.38,1.69,1.69,0,0,1-.41-1.26,4.27,4.27,0,0,1-1.69,1.26,5.71,5.71,0,0,1-2.09.38,5.56,5.56,0,0,1-1.38-.16,3.37,3.37,0,0,1-1.13-.52,2.48,2.48,0,0,1-.76-.93,3.06,3.06,0,0,1-.28-1.38,3.15,3.15,0,0,1,.31-1.5,2.58,2.58,0,0,1,.82-.94,3.55,3.55,0,0,1,1.16-.55c.44-.13.89-.23,1.34-.32s.95-.17,1.39-.21a7.93,7.93,0,0,0,1.15-.21,1.9,1.9,0,0,0,.79-.4,1,1,0,0,0,.29-.76,1.71,1.71,0,0,0-.22-.93,1.38,1.38,0,0,0-.56-.54,2.12,2.12,0,0,0-.77-.25,5.93,5.93,0,0,0-.84-.06,3.78,3.78,0,0,0-1.87.42,1.81,1.81,0,0,0-.81,1.61H369.5a3.85,3.85,0,0,1,.42-1.68,3.13,3.13,0,0,1,1-1.11,4.2,4.2,0,0,1,1.43-.62,7.73,7.73,0,0,1,1.71-.18,10,10,0,0,1,1.45.1,3.69,3.69,0,0,1,1.3.43,2.37,2.37,0,0,1,.93.9,2.84,2.84,0,0,1,.36,1.51V39.8a4,4,0,0,0,.07.91c0,.2.21.29.49.29a2.43,2.43,0,0,0,.54-.08Zm-2.87-5.51a2,2,0,0,1-.87.36c-.36.08-.74.14-1.14.19s-.79.1-1.19.17a4.26,4.26,0,0,0-1.08.3,1.84,1.84,0,0,0-.78.59,1.63,1.63,0,0,0-.3,1,1.34,1.34,0,0,0,.63,1.22,1.77,1.77,0,0,0,.66.27A3.31,3.31,0,0,0,373,41a4.12,4.12,0,0,0,1.49-.24,3,3,0,0,0,1-.59,2.47,2.47,0,0,0,.58-.79,1.9,1.9,0,0,0,.19-.8Z" transform="translate(-15.81 -8.36)"/><rect class="cls-3" x="365.1" y="19.14" width="1.77" height="14.84"/><path class="cls-3" d="M399,42.33V40.88h0a2.66,2.66,0,0,1-1.37,1.29,5.32,5.32,0,0,1-2.06.39,4.75,4.75,0,0,1-2.17-.46,4.42,4.42,0,0,1-1.54-1.22,5.15,5.15,0,0,1-.92-1.79,7.28,7.28,0,0,1-.32-2.16,7.62,7.62,0,0,1,.3-2.16,5.28,5.28,0,0,1,.92-1.78,4.39,4.39,0,0,1,1.54-1.21,5,5,0,0,1,2.15-.44,4.74,4.74,0,0,1,.89.08,5,5,0,0,1,1,.28,3.7,3.7,0,0,1,.9.52,2.64,2.64,0,0,1,.72.8h0V27.49h1.77V42.33Zm-6.35-3.81a3.79,3.79,0,0,0,.61,1.28,2.87,2.87,0,0,0,1,.89,3.21,3.21,0,0,0,1.49.33,3,3,0,0,0,1.52-.35,3.22,3.22,0,0,0,1-.92,4.12,4.12,0,0,0,.57-1.3,6.17,6.17,0,0,0,.17-1.48,6.41,6.41,0,0,0-.18-1.53,4,4,0,0,0-.59-1.3,3.16,3.16,0,0,0-1.05-.9,3.27,3.27,0,0,0-1.56-.34,3,3,0,0,0-1.52.35,2.8,2.8,0,0,0-1,.93,4.13,4.13,0,0,0-.54,1.33,7.2,7.2,0,0,0-.17,1.54,5.6,5.6,0,0,0,.2,1.47" transform="translate(-15.81 -8.36)"/><path class="cls-3" d="M411,41.65a4.85,4.85,0,0,1-3,.91,5.7,5.7,0,0,1-2.24-.41A4.45,4.45,0,0,1,404.16,41a5,5,0,0,1-1-1.79,8.41,8.41,0,0,1-.37-2.26,6.48,6.48,0,0,1,.38-2.25,5.46,5.46,0,0,1,1.05-1.76,4.76,4.76,0,0,1,1.6-1.17,5,5,0,0,1,2-.41,4.4,4.4,0,0,1,2.38.59,4.64,4.64,0,0,1,1.51,1.51,5.85,5.85,0,0,1,.79,2,8.25,8.25,0,0,1,.18,2.06H404.7a4.52,4.52,0,0,0,.17,1.34,3.19,3.19,0,0,0,.6,1.12,2.9,2.9,0,0,0,1.06.78,3.59,3.59,0,0,0,1.52.29,3,3,0,0,0,1.84-.52,2.52,2.52,0,0,0,.95-1.58h1.74A4.25,4.25,0,0,1,411,41.65m-.42-6.9a3,3,0,0,0-.65-1,3,3,0,0,0-.95-.64,3.27,3.27,0,0,0-2.46,0,2.69,2.69,0,0,0-.94.65,3.16,3.16,0,0,0-.62,1,3.52,3.52,0,0,0-.28,1.17h6.18a3.64,3.64,0,0,0-.28-1.18" transform="translate(-15.81 -8.36)"/><polygon class="cls-3" points="212.09 41.13 212.09 39.47 223.96 39.47 223.96 41.13 219.02 41.13 219.02 54.31 217.04 54.31 217.04 41.13 212.09 41.13"/><path class="cls-3" d="M246.87,62a4.9,4.9,0,0,1-3,.91,5.45,5.45,0,0,1-2.23-.41A4.28,4.28,0,0,1,240,61.31a4.79,4.79,0,0,1-1-1.78,8.56,8.56,0,0,1-.37-2.27,6.38,6.38,0,0,1,.38-2.24,5.4,5.4,0,0,1,1-1.77,4.76,4.76,0,0,1,1.6-1.17,5,5,0,0,1,2-.41,4.47,4.47,0,0,1,2.38.59,4.73,4.73,0,0,1,1.51,1.51,5.85,5.85,0,0,1,.79,2,8.25,8.25,0,0,1,.18,2.06h-8a4.21,4.21,0,0,0,.16,1.34,3.1,3.1,0,0,0,.61,1.13,2.91,2.91,0,0,0,1.06.77,3.51,3.51,0,0,0,1.51.3,3.1,3.1,0,0,0,1.84-.52,2.53,2.53,0,0,0,1-1.58h1.74A4.29,4.29,0,0,1,246.87,62m-.43-6.9a2.85,2.85,0,0,0-.65-1,3,3,0,0,0-2.17-.88,3,3,0,0,0-1.23.24,2.92,2.92,0,0,0-.95.65,3.16,3.16,0,0,0-.62,1,3.33,3.33,0,0,0-.27,1.17h6.17a3.64,3.64,0,0,0-.28-1.18" transform="translate(-15.81 -8.36)"/><path class="cls-3" d="M256.92,53.79a2.69,2.69,0,0,0-1.78-.56,3.39,3.39,0,0,0-1.61.35,2.89,2.89,0,0,0-1,.94,4,4,0,0,0-.56,1.34,7.33,7.33,0,0,0-.16,1.57,5.82,5.82,0,0,0,.18,1.45,3.77,3.77,0,0,0,.55,1.26,2.74,2.74,0,0,0,1,.88,2.87,2.87,0,0,0,1.44.34,2.91,2.91,0,0,0,2.05-.69,3.1,3.1,0,0,0,.9-1.93h1.81a5,5,0,0,1-1.49,3.07A4.67,4.67,0,0,1,255,62.89a5.64,5.64,0,0,1-2.17-.39,4.21,4.21,0,0,1-1.58-1.12,4.76,4.76,0,0,1-1-1.74,7.37,7.37,0,0,1-.32-2.21,7.81,7.81,0,0,1,.31-2.26,5.14,5.14,0,0,1,1-1.83,4.29,4.29,0,0,1,1.59-1.22,5.11,5.11,0,0,1,2.22-.45,6.26,6.26,0,0,1,1.71.22,4.14,4.14,0,0,1,1.42.67,3.78,3.78,0,0,1,1,1.16,4.27,4.27,0,0,1,.5,1.65H257.8a2.66,2.66,0,0,0-.88-1.58" transform="translate(-15.81 -8.36)"/><path class="cls-3" d="M263.24,51.92v1.7h.05a3.71,3.71,0,0,1,3.49-1.95,4.73,4.73,0,0,1,1.76.29,2.85,2.85,0,0,1,1.15.81A3.07,3.07,0,0,1,270.3,54a6.55,6.55,0,0,1,.18,1.59v7.07h-1.77V55.39a2,2,0,0,0-2.18-2.16,3.5,3.5,0,0,0-1.4.25,2.55,2.55,0,0,0-1,.7,3,3,0,0,0-.59,1.07,4.16,4.16,0,0,0-.2,1.35v6.07h-1.77V51.92Z" transform="translate(-15.81 -8.36)"/><path class="cls-3" d="M272.78,55.09a5.06,5.06,0,0,1,1-1.79,4.72,4.72,0,0,1,1.64-1.19,5.32,5.32,0,0,1,2.25-.44,5.25,5.25,0,0,1,2.25.44,4.68,4.68,0,0,1,1.63,1.19,4.91,4.91,0,0,1,1,1.79,7.57,7.57,0,0,1,0,4.42,4.91,4.91,0,0,1-1,1.77,4.56,4.56,0,0,1-1.63,1.19,5.58,5.58,0,0,1-2.25.42,5.64,5.64,0,0,1-2.25-.42,4.6,4.6,0,0,1-1.64-1.19,5.06,5.06,0,0,1-1-1.77,7.57,7.57,0,0,1,0-4.42m1.8,3.95a3.57,3.57,0,0,0,.72,1.27,3,3,0,0,0,1.07.78,3.19,3.19,0,0,0,1.3.27,3.14,3.14,0,0,0,2.37-1,3.71,3.71,0,0,0,.71-1.27A5.22,5.22,0,0,0,281,57.3a5.12,5.12,0,0,0-.26-1.73,3.76,3.76,0,0,0-.71-1.28A3.13,3.13,0,0,0,279,53.5a3.22,3.22,0,0,0-1.3-.27,3.19,3.19,0,0,0-1.3.27,3,3,0,0,0-1.07.79,3.62,3.62,0,0,0-.72,1.28,5.38,5.38,0,0,0-.26,1.73,5.49,5.49,0,0,0,.26,1.74" transform="translate(-15.81 -8.36)"/><rect class="cls-3" x="269.13" y="39.47" width="1.77" height="14.84"/><path class="cls-3" d="M289.12,55.09a4.91,4.91,0,0,1,1-1.79,4.72,4.72,0,0,1,1.64-1.19,6,6,0,0,1,4.5,0,4.77,4.77,0,0,1,1.63,1.19,5.06,5.06,0,0,1,1,1.79,7.57,7.57,0,0,1,0,4.42,5.06,5.06,0,0,1-1,1.77,4.65,4.65,0,0,1-1.63,1.19,6.24,6.24,0,0,1-4.5,0,4.6,4.6,0,0,1-1.64-1.19,4.91,4.91,0,0,1-1-1.77,7.35,7.35,0,0,1,0-4.42m1.8,3.95a3.71,3.71,0,0,0,.71,1.27,3.14,3.14,0,0,0,1.07.78,3.22,3.22,0,0,0,1.3.27,3.19,3.19,0,0,0,1.3-.27,3,3,0,0,0,1.07-.78,3.57,3.57,0,0,0,.72-1.27,5.49,5.49,0,0,0,.26-1.74,5.38,5.38,0,0,0-.26-1.73,3.62,3.62,0,0,0-.72-1.28,3,3,0,0,0-1.07-.79,3.19,3.19,0,0,0-1.3-.27,3.22,3.22,0,0,0-1.3.27,3,3,0,0,0-1.07.79,3.76,3.76,0,0,0-.71,1.28,5.12,5.12,0,0,0-.26,1.73,5.22,5.22,0,0,0,.26,1.74" transform="translate(-15.81 -8.36)"/><path class="cls-3" d="M309.31,65.7A4.94,4.94,0,0,1,305.53,67a7.39,7.39,0,0,1-1.53-.17,4.75,4.75,0,0,1-1.42-.54,3.36,3.36,0,0,1-1.05-1,2.81,2.81,0,0,1-.45-1.48h1.76a1.32,1.32,0,0,0,.31.81,2.14,2.14,0,0,0,.68.54,3.27,3.27,0,0,0,.88.3,5.07,5.07,0,0,0,.92.1,3.34,3.34,0,0,0,1.48-.3,2.78,2.78,0,0,0,1-.84,3.19,3.19,0,0,0,.57-1.28,6.92,6.92,0,0,0,.18-1.64v-.7h0a3,3,0,0,1-1.38,1.46,4.33,4.33,0,0,1-2,.47,4.77,4.77,0,0,1-2.1-.44,4.41,4.41,0,0,1-1.49-1.17,4.85,4.85,0,0,1-.91-1.73,7.14,7.14,0,0,1-.3-2.09,8,8,0,0,1,.25-2,5.43,5.43,0,0,1,.83-1.83,4.49,4.49,0,0,1,1.54-1.35,4.83,4.83,0,0,1,2.35-.53,3.94,3.94,0,0,1,1.87.45,3.08,3.08,0,0,1,1.33,1.34h0V51.92h1.66v9.83a5.67,5.67,0,0,1-1.2,4m-2.26-4.83a2.84,2.84,0,0,0,1-1,4.34,4.34,0,0,0,.55-1.34,6.41,6.41,0,0,0,.18-1.5,5.94,5.94,0,0,0-.17-1.39,3.94,3.94,0,0,0-.53-1.24,2.65,2.65,0,0,0-2.36-1.21,3.08,3.08,0,0,0-1.45.32,2.83,2.83,0,0,0-1,.86,3.65,3.65,0,0,0-.56,1.25,5.94,5.94,0,0,0-.18,1.48,7.14,7.14,0,0,0,.15,1.45,3.81,3.81,0,0,0,.5,1.32,2.67,2.67,0,0,0,.93,1,2.75,2.75,0,0,0,1.46.36,2.87,2.87,0,0,0,1.48-.36" transform="translate(-15.81 -8.36)"/><path class="cls-3" d="M313.13,47.82h1.77V50h-1.77Zm1.77,14.85h-1.77V51.92h1.77Z" transform="translate(-15.81 -8.36)"/><path class="cls-3" d="M327.08,62.62a2.52,2.52,0,0,1-1.27.27,1.49,1.49,0,0,1-1.09-.38,1.69,1.69,0,0,1-.41-1.26,4.27,4.27,0,0,1-1.69,1.26,5.51,5.51,0,0,1-2.09.38,5.67,5.67,0,0,1-1.38-.16,3.18,3.18,0,0,1-1.13-.52,2.48,2.48,0,0,1-.76-.93A3.06,3.06,0,0,1,317,59.9a3.15,3.15,0,0,1,.31-1.5,2.77,2.77,0,0,1,.82-.94,3.76,3.76,0,0,1,1.16-.55c.44-.13.89-.23,1.34-.32s.95-.16,1.39-.21a7.93,7.93,0,0,0,1.15-.21,1.84,1.84,0,0,0,.79-.4,1,1,0,0,0,.29-.75,1.74,1.74,0,0,0-.22-.94,1.38,1.38,0,0,0-.56-.54,2.32,2.32,0,0,0-.77-.25,5.93,5.93,0,0,0-.84-.06,3.78,3.78,0,0,0-1.87.42,1.81,1.81,0,0,0-.81,1.61h-1.77a3.85,3.85,0,0,1,.42-1.68,3.06,3.06,0,0,1,1-1.11,4,4,0,0,1,1.42-.61,7.17,7.17,0,0,1,1.71-.19,10,10,0,0,1,1.45.1,3.69,3.69,0,0,1,1.3.43,2.37,2.37,0,0,1,.93.9,2.84,2.84,0,0,1,.36,1.51v5.52a4,4,0,0,0,.07.91c.05.2.21.3.49.3a2,2,0,0,0,.54-.09Zm-2.87-5.5a2.33,2.33,0,0,1-.87.36c-.36.07-.74.14-1.14.18l-1.19.17a4.26,4.26,0,0,0-1.08.3,1.93,1.93,0,0,0-.78.59,1.63,1.63,0,0,0-.3,1,1.53,1.53,0,0,0,.17.74,1.41,1.41,0,0,0,.46.48,1.77,1.77,0,0,0,.66.27,3.35,3.35,0,0,0,.79.09,4.12,4.12,0,0,0,1.49-.24,3.13,3.13,0,0,0,1-.6,2.37,2.37,0,0,0,.58-.79,1.89,1.89,0,0,0,.19-.79Z" transform="translate(-15.81 -8.36)"/><path class="cls-3" d="M342.11,62a4.9,4.9,0,0,1-3,.91,5.45,5.45,0,0,1-2.23-.41,4.45,4.45,0,0,1-1.59-1.17,4.94,4.94,0,0,1-1-1.78,9,9,0,0,1-.36-2.27,6.38,6.38,0,0,1,.37-2.24,5.4,5.4,0,0,1,1-1.77,4.87,4.87,0,0,1,1.6-1.17,5,5,0,0,1,2-.41,4.44,4.44,0,0,1,2.38.59,4.77,4.77,0,0,1,1.52,1.51,6.06,6.06,0,0,1,.79,2,8.72,8.72,0,0,1,.17,2.06h-8a4.52,4.52,0,0,0,.16,1.34,3.1,3.1,0,0,0,.61,1.13,2.91,2.91,0,0,0,1.06.77,3.55,3.55,0,0,0,1.52.3,3.13,3.13,0,0,0,1.84-.52,2.56,2.56,0,0,0,.94-1.58h1.75A4.34,4.34,0,0,1,342.11,62m-.43-6.9a3,3,0,0,0-.64-1,3,3,0,0,0-1-.64,3,3,0,0,0-1.21-.24,3.08,3.08,0,0,0-1.24.24,3,3,0,0,0-.95.65,3.16,3.16,0,0,0-.62,1,3.84,3.84,0,0,0-.27,1.17H342a3.64,3.64,0,0,0-.28-1.18" transform="translate(-15.81 -8.36)"/><path class="cls-3" d="M359.16,49.85a4.16,4.16,0,0,0-2.52-.72,5.58,5.58,0,0,0-1.23.13,3.27,3.27,0,0,0-1.07.41,2.33,2.33,0,0,0-.75.78,2.5,2.5,0,0,0-.28,1.22,1.53,1.53,0,0,0,.41,1.11,3.06,3.06,0,0,0,1.08.7,8.41,8.41,0,0,0,1.53.44l1.73.39c.59.14,1.17.3,1.74.49a5.47,5.47,0,0,1,1.53.76,3.56,3.56,0,0,1,1.08,1.2,3.75,3.75,0,0,1,.4,1.83,3.68,3.68,0,0,1-.53,2A4.34,4.34,0,0,1,360.92,62a5.94,5.94,0,0,1-1.86.77,9,9,0,0,1-4.41-.07,5.91,5.91,0,0,1-1.95-.95,4.4,4.4,0,0,1-1.33-1.62,5.18,5.18,0,0,1-.49-2.34h1.87a3.39,3.39,0,0,0,.36,1.61,3.45,3.45,0,0,0,1,1.11,4.18,4.18,0,0,0,1.38.65,6.32,6.32,0,0,0,1.62.21,7.71,7.71,0,0,0,1.35-.13,3.63,3.63,0,0,0,1.21-.43,2.31,2.31,0,0,0,1.21-2.15,1.84,1.84,0,0,0-.41-1.24,3,3,0,0,0-1.08-.78,7.64,7.64,0,0,0-1.53-.49l-1.73-.39q-.88-.2-1.74-.45a6.7,6.7,0,0,1-1.53-.69,3.05,3.05,0,0,1-1.48-2.8,4,4,0,0,1,.45-1.94A4,4,0,0,1,353,48.52a5.47,5.47,0,0,1,1.73-.79,7.68,7.68,0,0,1,2-.26,7.94,7.94,0,0,1,2.12.27,4.86,4.86,0,0,1,1.72.85,4.1,4.1,0,0,1,1.16,1.47,5.33,5.33,0,0,1,.47,2.11h-1.87a3.09,3.09,0,0,0-1.16-2.32" transform="translate(-15.81 -8.36)"/><path class="cls-3" d="M374.38,62.62a2.52,2.52,0,0,1-1.27.27,1.49,1.49,0,0,1-1.09-.38,1.69,1.69,0,0,1-.41-1.26,4.27,4.27,0,0,1-1.69,1.26,6,6,0,0,1-3.47.22,3.18,3.18,0,0,1-1.13-.52,2.48,2.48,0,0,1-.76-.93,3.06,3.06,0,0,1-.28-1.38,3.15,3.15,0,0,1,.31-1.5,2.66,2.66,0,0,1,.82-.94,3.76,3.76,0,0,1,1.16-.55c.44-.13.89-.23,1.34-.32s.95-.16,1.39-.21a7.93,7.93,0,0,0,1.15-.21,1.9,1.9,0,0,0,.79-.4,1,1,0,0,0,.29-.75,1.74,1.74,0,0,0-.22-.94,1.38,1.38,0,0,0-.56-.54,2.32,2.32,0,0,0-.77-.25,5.93,5.93,0,0,0-.84-.06,3.78,3.78,0,0,0-1.87.42,1.81,1.81,0,0,0-.81,1.61h-1.77a3.85,3.85,0,0,1,.42-1.68,3.13,3.13,0,0,1,1-1.11,4,4,0,0,1,1.43-.61,7.17,7.17,0,0,1,1.71-.19,10,10,0,0,1,1.45.1,3.69,3.69,0,0,1,1.3.43,2.37,2.37,0,0,1,.93.9,2.84,2.84,0,0,1,.36,1.51v5.52a4,4,0,0,0,.07.91c0,.2.21.3.49.3a2,2,0,0,0,.54-.09Zm-2.87-5.5a2.33,2.33,0,0,1-.87.36c-.36.07-.74.14-1.14.18l-1.19.17a4.26,4.26,0,0,0-1.08.3,1.93,1.93,0,0,0-.78.59,1.63,1.63,0,0,0-.3,1,1.34,1.34,0,0,0,.63,1.22,1.77,1.77,0,0,0,.66.27,3.29,3.29,0,0,0,.79.09,4.12,4.12,0,0,0,1.49-.24,3.13,3.13,0,0,0,1-.6,2.37,2.37,0,0,0,.58-.79,1.89,1.89,0,0,0,.19-.79Z" transform="translate(-15.81 -8.36)"/><path class="cls-3" d="M383.11,62.67V61h0a3.62,3.62,0,0,1-1.43,1.47,4.32,4.32,0,0,1-2.06.46,4.76,4.76,0,0,1-1.77-.28,2.71,2.71,0,0,1-1.14-.8,2.91,2.91,0,0,1-.61-1.23,6.55,6.55,0,0,1-.18-1.59V51.92h1.77v7.27a2.11,2.11,0,0,0,.58,1.58,2.16,2.16,0,0,0,1.6.59,3.69,3.69,0,0,0,1.4-.25,2.68,2.68,0,0,0,1-.71,3,3,0,0,0,.59-1.07A4.43,4.43,0,0,0,383,58V51.92h1.77V62.67Zm-1.93-16-2,3.37h1.33l2.93-3.37Z" transform="translate(-15.81 -8.36)"/><path class="cls-3" d="M395.23,62.66V61.21h0a2.58,2.58,0,0,1-1.37,1.29,5.29,5.29,0,0,1-2.06.39,4.92,4.92,0,0,1-2.17-.45,4.56,4.56,0,0,1-1.54-1.23,5.15,5.15,0,0,1-.92-1.79,7.56,7.56,0,0,1,0-4.32,5.09,5.09,0,0,1,.91-1.78,4.37,4.37,0,0,1,1.54-1.2,4.86,4.86,0,0,1,2.15-.45,5.65,5.65,0,0,1,.89.08,5,5,0,0,1,1,.28,4.05,4.05,0,0,1,.9.52,2.76,2.76,0,0,1,.72.8h0V47.82H397V62.66Zm-6.35-3.81a4,4,0,0,0,.61,1.28,2.91,2.91,0,0,0,1,.89,3.39,3.39,0,0,0,3,0,3.1,3.1,0,0,0,1-.92,4,4,0,0,0,.57-1.3,6.18,6.18,0,0,0,.18-1.48,6.54,6.54,0,0,0-.19-1.53,4,4,0,0,0-.59-1.3,3.07,3.07,0,0,0-1-.9,3.27,3.27,0,0,0-1.56-.34,3.1,3.1,0,0,0-1.52.35,2.82,2.82,0,0,0-1,.94,4,4,0,0,0-.54,1.33,7.1,7.1,0,0,0-.16,1.53,5.59,5.59,0,0,0,.19,1.47" transform="translate(-15.81 -8.36)"/><path class="cls-3" d="M407.23,62a4.9,4.9,0,0,1-3,.91,5.45,5.45,0,0,1-2.23-.41,4.28,4.28,0,0,1-1.59-1.17,4.79,4.79,0,0,1-1-1.78,8.56,8.56,0,0,1-.37-2.27,6.38,6.38,0,0,1,.38-2.24,5.4,5.4,0,0,1,1-1.77,4.76,4.76,0,0,1,1.6-1.17,5,5,0,0,1,2-.41,4.47,4.47,0,0,1,2.38.59A4.73,4.73,0,0,1,408,53.77a5.85,5.85,0,0,1,.79,2,8.25,8.25,0,0,1,.18,2.06h-8a4.21,4.21,0,0,0,.16,1.34,3.1,3.1,0,0,0,.61,1.13,2.91,2.91,0,0,0,1.06.77,3.51,3.51,0,0,0,1.51.3,3.1,3.1,0,0,0,1.84-.52,2.53,2.53,0,0,0,1-1.58h1.74A4.29,4.29,0,0,1,407.23,62m-.43-6.9a2.85,2.85,0,0,0-.65-1,3,3,0,0,0-2.17-.88,3,3,0,0,0-1.23.24,2.92,2.92,0,0,0-.95.65,3.16,3.16,0,0,0-.62,1,3.33,3.33,0,0,0-.27,1.17h6.17a3.64,3.64,0,0,0-.28-1.18" transform="translate(-15.81 -8.36)"/><path class="cls-4" d="M55.16,46.8A19.68,19.68,0,1,1,35.49,27.12,19.68,19.68,0,0,1,55.16,46.8" transform="translate(-15.81 -8.36)"/><path class="cls-3" d="M187.87,33.23H173.64a1.07,1.07,0,0,1-1.07-1.06v-4c0-2.34-.21-3.84-.62-4.48a2.3,2.3,0,0,0-2.1-1,2.67,2.67,0,0,0-2.41,1.3,7.53,7.53,0,0,0-.81,3.93,11.27,11.27,0,0,0,.91,5.12c.59,1.14,2.26,2.51,5,4.14q11.78,7,14.82,11.46c2.05,3,3.06,7.8,3.06,14.44q0,7.25-1.7,10.68t-6.55,5.76a26,26,0,0,1-11.3,2.33,25.21,25.21,0,0,1-12.08-2.69q-5-2.67-6.56-6.82c-1-2.77-1.54-6.68-1.54-11.77V57.29a1.06,1.06,0,0,1,1.07-1.07H166A1.07,1.07,0,0,1,167,57.29v7.17c0,2.55.23,4.18.69,4.91a2.74,2.74,0,0,0,2.46,1.08,2.86,2.86,0,0,0,2.61-1.38,7.92,7.92,0,0,0,.86-4.11c0-4-.54-6.6-1.63-7.82s-3.87-3.27-8.25-6.15a81.72,81.72,0,0,1-8.71-6.33,14.79,14.79,0,0,1-3.53-5.44,23.89,23.89,0,0,1-1.4-8.88c0-5.19.65-9,2-11.39a13.37,13.37,0,0,1,6.42-5.63,25.86,25.86,0,0,1,10.72-2A28.06,28.06,0,0,1,181,13.51q4.83,2.22,6.41,5.6t1.56,11.44v1.62a1.06,1.06,0,0,1-1.07,1.06" transform="translate(-15.81 -8.36)"/><path class="cls-3" d="M146.63,12.43v11.9a1.12,1.12,0,0,1-1.12,1.11h-9.78V80.8a1.09,1.09,0,0,1-1.12,1.1H118.49a1.1,1.1,0,0,1-1.11-1.1V25.44h-9.75a1.11,1.11,0,0,1-1.12-1.1V12.43a1.11,1.11,0,0,1,1.12-1.11h37.88a1.11,1.11,0,0,1,1.12,1.11" transform="translate(-15.81 -8.36)"/><path class="cls-3" d="M76.65,54.4V80.8a1.09,1.09,0,0,1-1.11,1.1H62.41a1.11,1.11,0,0,1-1.11-1.1V62Zm25.64-42V80.79a1.11,1.11,0,0,1-1.12,1.11H86.94a1.1,1.1,0,0,1-1-.74L77.83,53.81l12.16-6a1.39,1.39,0,0,0,0-2.28L61.3,31.45v-19a1.1,1.1,0,0,1,1.11-1.11H75.83a1.11,1.11,0,0,1,1,.74L86.94,43.11V12.43A1.1,1.1,0,0,1,88,11.32h13.13a1.1,1.1,0,0,1,1.12,1.11" transform="translate(-15.81 -8.36)"/><path class="cls-5" d="M35.41,20.46c16.75,8.22,35.3,17.27,52.06,25.48a.89.89,0,0,1,0,1.45L35.41,73.22V68A21.41,21.41,0,0,0,56.69,46.78,21.4,21.4,0,0,0,35.41,25.61Z" transform="translate(-15.81 -8.36)"/><path class="cls-6" d="M45.55,42.71H41.26A1.69,1.69,0,0,1,39.57,41V36.73a1.7,1.7,0,0,0-1.7-1.7H33.09a1.7,1.7,0,0,0-1.7,1.7V41a1.7,1.7,0,0,1-1.7,1.7H25.41a1.7,1.7,0,0,0-1.69,1.7V49.2a1.7,1.7,0,0,0,1.7,1.7h4.29a1.7,1.7,0,0,1,1.7,1.7v4.28a1.7,1.7,0,0,0,1.7,1.7h4.77a1.7,1.7,0,0,0,1.7-1.7V52.58a1.7,1.7,0,0,1,1.7-1.7h4.29a1.68,1.68,0,0,0,1.69-1.7V44.41a1.7,1.7,0,0,0-1.7-1.7" transform="translate(-15.81 -8.36)"/><path class="cls-3" d="M36.63,19.34l17.3,8.49V12.43a1.12,1.12,0,0,0-1.11-1.11H36.52a1.11,1.11,0,0,0-1.12,1.11v6.3Z" transform="translate(-15.81 -8.36)"/><path class="cls-3" d="M35.4,75V80.8a1.12,1.12,0,0,0,1.11,1.1H52.83a1.1,1.1,0,0,0,1.1-1.1V65.73Z" transform="translate(-15.81 -8.36)"/></g></g></g></g></svg>