<?xml version="1.0" encoding="utf-8"?>
<!-- Generator: Adobe Illustrator 25.2.3, SVG Export Plug-In . SVG Version: 6.00 Build 0)  -->
<svg version="1.1" id="Camada_1" xmlns="http://www.w3.org/2000/svg" xmlns:xlink="http://www.w3.org/1999/xlink" x="0px" y="0px"
	 viewBox="0 0 484.9 283.9" style="enable-background:new 0 0 484.9 283.9;" xml:space="preserve">
<style type="text/css">
	.st0{fill:#057032;}
	.st1{fill:#05509D;}
	.st2{fill-rule:evenodd;clip-rule:evenodd;fill:#FECA05;}
	.st3{fill:#FFFFFF;}
</style>
<g>
	<g>
	</g>
</g>
<g>
	<g>
		<g>
			<g>
				<g>
				</g>
			</g>
		</g>
	</g>
</g>
<g>
	<g>
		<path class="st0" d="M80.3,225v14.8h-2V225H80.3z"/>
		<path class="st0" d="M84.8,229.1v1.7h0c0.7-1.3,1.9-2,3.5-2c0.7,0,1.3,0.1,1.8,0.3s0.9,0.5,1.1,0.8s0.5,0.8,0.6,1.2
			c0.1,0.5,0.2,1,0.2,1.6v7.1h-1.8v-7.3c0-0.7-0.2-1.2-0.6-1.6c-0.4-0.4-0.9-0.6-1.6-0.6c-0.5,0-1,0.1-1.4,0.2
			c-0.4,0.2-0.7,0.4-1,0.7c-0.3,0.3-0.5,0.7-0.6,1.1c-0.1,0.4-0.2,0.9-0.2,1.3v6.1h-1.8v-10.7H84.8z"/>
		<path class="st0" d="M96,237.4c0.2,0.3,0.4,0.5,0.7,0.6c0.3,0.2,0.6,0.3,0.9,0.3s0.7,0.1,1,0.1c0.3,0,0.6,0,0.9-0.1
			c0.3,0,0.6-0.1,0.8-0.2c0.3-0.1,0.5-0.3,0.6-0.5c0.2-0.2,0.2-0.5,0.2-0.8c0-0.5-0.2-0.8-0.5-1c-0.3-0.2-0.8-0.4-1.3-0.6
			s-1.1-0.3-1.7-0.4c-0.6-0.1-1.2-0.3-1.7-0.5c-0.5-0.2-1-0.5-1.3-0.9s-0.5-0.9-0.5-1.6c0-0.5,0.1-1,0.4-1.4
			c0.2-0.4,0.6-0.7,0.9-0.9c0.4-0.2,0.8-0.4,1.3-0.5c0.5-0.1,1-0.2,1.4-0.2c0.6,0,1.2,0.1,1.7,0.2c0.5,0.1,1,0.3,1.4,0.5
			c0.4,0.3,0.7,0.6,0.9,1s0.4,1,0.4,1.6h-1.8c0-0.3-0.1-0.6-0.3-0.9c-0.2-0.2-0.3-0.4-0.6-0.6c-0.2-0.1-0.5-0.2-0.8-0.3
			c-0.3-0.1-0.6-0.1-0.9-0.1c-0.3,0-0.5,0-0.8,0.1c-0.3,0-0.5,0.1-0.7,0.2c-0.2,0.1-0.4,0.2-0.5,0.4c-0.1,0.2-0.2,0.4-0.2,0.7
			c0,0.3,0.1,0.6,0.3,0.8s0.5,0.4,0.8,0.5c0.3,0.1,0.7,0.2,1.1,0.3c0.4,0.1,0.8,0.2,1.2,0.3c0.4,0.1,0.9,0.2,1.3,0.4
			s0.8,0.3,1.1,0.6c0.3,0.2,0.6,0.5,0.8,0.9c0.2,0.3,0.3,0.8,0.3,1.3c0,0.7-0.1,1.2-0.4,1.6c-0.3,0.4-0.6,0.8-1.1,1
			c-0.4,0.3-0.9,0.4-1.5,0.6c-0.5,0.1-1.1,0.2-1.6,0.2c-0.6,0-1.2-0.1-1.7-0.2c-0.5-0.1-1-0.3-1.4-0.6c-0.4-0.3-0.7-0.7-1-1.1
			c-0.2-0.5-0.4-1-0.4-1.7h1.8C95.7,236.8,95.8,237.1,96,237.4z"/>
		<path class="st0" d="M109.5,229.1v1.6h-2.1v6.7c0,0.2,0,0.4,0.1,0.5c0,0.1,0.1,0.2,0.2,0.3c0.1,0.1,0.2,0.1,0.4,0.1
			c0.2,0,0.4,0,0.7,0h0.8v1.6h-1.4c-0.5,0-0.8,0-1.2-0.1c-0.3-0.1-0.6-0.2-0.8-0.3c-0.2-0.2-0.3-0.4-0.4-0.7
			c-0.1-0.3-0.1-0.7-0.1-1.2v-6.8h-1.8v-1.6h1.8v-3.2h1.8v3.2H109.5z"/>
		<path class="st0" d="M111.4,227.1V225h1.8v2.2H111.4z M113.2,229.1v10.7h-1.8v-10.7H113.2z"/>
		<path class="st0" d="M120.4,229.1v1.6h-2.1v6.7c0,0.2,0,0.4,0.1,0.5c0,0.1,0.1,0.2,0.2,0.3c0.1,0.1,0.2,0.1,0.4,0.1
			c0.2,0,0.4,0,0.7,0h0.8v1.6H119c-0.5,0-0.8,0-1.2-0.1c-0.3-0.1-0.6-0.2-0.8-0.3c-0.2-0.2-0.3-0.4-0.4-0.7
			c-0.1-0.3-0.1-0.7-0.1-1.2v-6.8h-1.8v-1.6h1.8v-3.2h1.8v3.2H120.4z"/>
		<path class="st0" d="M129.3,239.8v-1.7h0c-0.4,0.7-0.9,1.2-1.4,1.5c-0.6,0.3-1.3,0.5-2.1,0.5c-0.7,0-1.3-0.1-1.8-0.3
			c-0.5-0.2-0.9-0.5-1.1-0.8c-0.3-0.3-0.5-0.8-0.6-1.2c-0.1-0.5-0.2-1-0.2-1.6v-7.1h1.8v7.3c0,0.7,0.2,1.2,0.6,1.6
			c0.4,0.4,0.9,0.6,1.6,0.6c0.5,0,1-0.1,1.4-0.2c0.4-0.2,0.7-0.4,1-0.7c0.3-0.3,0.5-0.7,0.6-1.1c0.1-0.4,0.2-0.9,0.2-1.3v-6.1h1.8
			v10.7H129.3z"/>
		<path class="st0" d="M138.1,229.1v1.6H136v6.7c0,0.2,0,0.4,0.1,0.5c0,0.1,0.1,0.2,0.2,0.3c0.1,0.1,0.2,0.1,0.4,0.1
			c0.2,0,0.4,0,0.7,0h0.8v1.6h-1.4c-0.5,0-0.8,0-1.2-0.1c-0.3-0.1-0.6-0.2-0.8-0.3c-0.2-0.2-0.3-0.4-0.4-0.7
			c-0.1-0.3-0.1-0.7-0.1-1.2v-6.8h-1.8v-1.6h1.8v-3.2h1.8v3.2H138.1z"/>
		<path class="st0" d="M139.4,232.2c0.2-0.7,0.6-1.3,1-1.8c0.4-0.5,1-0.9,1.6-1.2s1.4-0.4,2.2-0.4c0.9,0,1.6,0.1,2.3,0.4
			c0.6,0.3,1.2,0.7,1.6,1.2c0.4,0.5,0.8,1.1,1,1.8c0.2,0.7,0.3,1.4,0.3,2.2s-0.1,1.5-0.3,2.2c-0.2,0.7-0.6,1.3-1,1.8
			c-0.4,0.5-1,0.9-1.6,1.2c-0.6,0.3-1.4,0.4-2.3,0.4c-0.8,0-1.6-0.1-2.2-0.4c-0.7-0.3-1.2-0.7-1.6-1.2c-0.4-0.5-0.8-1.1-1-1.8
			c-0.2-0.7-0.3-1.4-0.3-2.2S139.1,232.9,139.4,232.2z M141.2,236.2c0.2,0.5,0.4,0.9,0.7,1.3s0.7,0.6,1.1,0.8
			c0.4,0.2,0.8,0.3,1.3,0.3s0.9-0.1,1.3-0.3c0.4-0.2,0.8-0.4,1.1-0.8c0.3-0.3,0.5-0.8,0.7-1.3c0.2-0.5,0.3-1.1,0.3-1.7
			s-0.1-1.2-0.3-1.7c-0.2-0.5-0.4-0.9-0.7-1.3c-0.3-0.3-0.7-0.6-1.1-0.8c-0.4-0.2-0.8-0.3-1.3-0.3s-0.9,0.1-1.3,0.3
			c-0.4,0.2-0.8,0.4-1.1,0.8s-0.5,0.8-0.7,1.3s-0.3,1.1-0.3,1.7S141,235.7,141.2,236.2z"/>
		<path class="st0" d="M159.7,225l7.8,12h0v-12h1.9v14.8h-2.2l-7.8-11.9h0v11.9h-1.9V225H159.7z"/>
		<path class="st0" d="M181.8,239.8c-0.3,0.2-0.7,0.3-1.3,0.3c-0.5,0-0.8-0.1-1.1-0.4c-0.3-0.3-0.4-0.7-0.4-1.3
			c-0.5,0.6-1,1-1.7,1.3c-0.6,0.3-1.3,0.4-2.1,0.4c-0.5,0-0.9-0.1-1.4-0.2c-0.4-0.1-0.8-0.3-1.1-0.5c-0.3-0.2-0.6-0.5-0.8-0.9
			c-0.2-0.4-0.3-0.8-0.3-1.4c0-0.6,0.1-1.1,0.3-1.5c0.2-0.4,0.5-0.7,0.8-0.9s0.7-0.4,1.2-0.6c0.4-0.1,0.9-0.2,1.3-0.3
			c0.5-0.1,0.9-0.2,1.4-0.2s0.8-0.1,1.2-0.2c0.3-0.1,0.6-0.2,0.8-0.4c0.2-0.2,0.3-0.4,0.3-0.8c0-0.4-0.1-0.7-0.2-0.9
			s-0.3-0.4-0.6-0.5c-0.2-0.1-0.5-0.2-0.8-0.2c-0.3,0-0.6-0.1-0.8-0.1c-0.7,0-1.4,0.1-1.9,0.4c-0.5,0.3-0.8,0.8-0.8,1.6h-1.8
			c0-0.7,0.2-1.2,0.4-1.7c0.2-0.5,0.6-0.8,1-1.1c0.4-0.3,0.9-0.5,1.4-0.6c0.5-0.1,1.1-0.2,1.7-0.2c0.5,0,1,0,1.4,0.1
			s0.9,0.2,1.3,0.4c0.4,0.2,0.7,0.5,0.9,0.9c0.2,0.4,0.4,0.9,0.4,1.5v5.5c0,0.4,0,0.7,0.1,0.9c0,0.2,0.2,0.3,0.5,0.3
			c0.2,0,0.3,0,0.5-0.1V239.8z M178.9,234.3c-0.2,0.2-0.5,0.3-0.9,0.4c-0.4,0.1-0.7,0.1-1.1,0.2c-0.4,0-0.8,0.1-1.2,0.2
			c-0.4,0.1-0.8,0.2-1.1,0.3c-0.3,0.1-0.6,0.3-0.8,0.6c-0.2,0.3-0.3,0.6-0.3,1c0,0.3,0.1,0.5,0.2,0.7c0.1,0.2,0.3,0.4,0.5,0.5
			c0.2,0.1,0.4,0.2,0.7,0.3c0.2,0.1,0.5,0.1,0.8,0.1c0.6,0,1.1-0.1,1.5-0.2c0.4-0.2,0.8-0.4,1-0.6c0.3-0.2,0.5-0.5,0.6-0.8
			c0.1-0.3,0.2-0.5,0.2-0.8V234.3z"/>
		<path class="st0" d="M189.7,230.9c-0.4-0.4-1-0.6-1.8-0.6c-0.6,0-1.2,0.1-1.6,0.4s-0.8,0.5-1,0.9c-0.3,0.4-0.4,0.8-0.6,1.3
			c-0.1,0.5-0.2,1-0.2,1.6c0,0.5,0.1,1,0.2,1.5c0.1,0.5,0.3,0.9,0.6,1.3s0.6,0.7,1,0.9c0.4,0.2,0.9,0.3,1.4,0.3c0.9,0,1.6-0.2,2-0.7
			c0.5-0.5,0.8-1.1,0.9-1.9h1.8c-0.2,1.3-0.7,2.4-1.5,3.1c-0.8,0.7-1.9,1.1-3.3,1.1c-0.8,0-1.5-0.1-2.2-0.4
			c-0.6-0.3-1.2-0.6-1.6-1.1c-0.4-0.5-0.7-1.1-1-1.7s-0.3-1.4-0.3-2.2s0.1-1.6,0.3-2.3c0.2-0.7,0.5-1.3,0.9-1.8s1-0.9,1.6-1.2
			c0.6-0.3,1.4-0.4,2.2-0.4c0.6,0,1.2,0.1,1.7,0.2s1,0.4,1.4,0.7c0.4,0.3,0.7,0.7,1,1.2c0.3,0.5,0.4,1,0.5,1.7h-1.8
			C190.5,231.8,190.2,231.3,189.7,230.9z"/>
		<path class="st0" d="M194.5,227.1V225h1.8v2.2H194.5z M196.2,229.1v10.7h-1.8v-10.7H196.2z"/>
		<path class="st0" d="M198.6,232.2c0.2-0.7,0.6-1.3,1-1.8c0.4-0.5,1-0.9,1.6-1.2s1.4-0.4,2.2-0.4c0.9,0,1.6,0.1,2.3,0.4
			c0.6,0.3,1.2,0.7,1.6,1.2c0.4,0.5,0.8,1.1,1,1.8c0.2,0.7,0.3,1.4,0.3,2.2s-0.1,1.5-0.3,2.2c-0.2,0.7-0.6,1.3-1,1.8
			c-0.4,0.5-1,0.9-1.6,1.2c-0.6,0.3-1.4,0.4-2.3,0.4c-0.8,0-1.6-0.1-2.2-0.4c-0.7-0.3-1.2-0.7-1.6-1.2c-0.4-0.5-0.8-1.1-1-1.8
			c-0.2-0.7-0.3-1.4-0.3-2.2S198.4,232.9,198.6,232.2z M200.4,236.2c0.2,0.5,0.4,0.9,0.7,1.3s0.7,0.6,1.1,0.8
			c0.4,0.2,0.8,0.3,1.3,0.3s0.9-0.1,1.3-0.3c0.4-0.2,0.8-0.4,1.1-0.8c0.3-0.3,0.5-0.8,0.7-1.3c0.2-0.5,0.3-1.1,0.3-1.7
			s-0.1-1.2-0.3-1.7c-0.2-0.5-0.4-0.9-0.7-1.3c-0.3-0.3-0.7-0.6-1.1-0.8c-0.4-0.2-0.8-0.3-1.3-0.3s-0.9,0.1-1.3,0.3
			c-0.4,0.2-0.8,0.4-1.1,0.8s-0.5,0.8-0.7,1.3s-0.3,1.1-0.3,1.7S200.3,235.7,200.4,236.2z"/>
		<path class="st0" d="M212.4,229.1v1.7h0c0.7-1.3,1.9-2,3.5-2c0.7,0,1.3,0.1,1.8,0.3s0.9,0.5,1.1,0.8s0.5,0.8,0.6,1.2
			c0.1,0.5,0.2,1,0.2,1.6v7.1h-1.8v-7.3c0-0.7-0.2-1.2-0.6-1.6c-0.4-0.4-0.9-0.6-1.6-0.6c-0.5,0-1,0.1-1.4,0.2
			c-0.4,0.2-0.7,0.4-1,0.7c-0.3,0.3-0.5,0.7-0.6,1.1c-0.1,0.4-0.2,0.9-0.2,1.3v6.1h-1.8v-10.7H212.4z"/>
		<path class="st0" d="M231.7,239.8c-0.3,0.2-0.7,0.3-1.3,0.3c-0.5,0-0.8-0.1-1.1-0.4c-0.3-0.3-0.4-0.7-0.4-1.3
			c-0.5,0.6-1,1-1.7,1.3c-0.6,0.3-1.3,0.4-2.1,0.4c-0.5,0-0.9-0.1-1.4-0.2c-0.4-0.1-0.8-0.3-1.1-0.5c-0.3-0.2-0.6-0.5-0.8-0.9
			c-0.2-0.4-0.3-0.8-0.3-1.4c0-0.6,0.1-1.1,0.3-1.5c0.2-0.4,0.5-0.7,0.8-0.9s0.7-0.4,1.2-0.6c0.4-0.1,0.9-0.2,1.3-0.3
			c0.5-0.1,0.9-0.2,1.4-0.2s0.8-0.1,1.2-0.2c0.3-0.1,0.6-0.2,0.8-0.4c0.2-0.2,0.3-0.4,0.3-0.8c0-0.4-0.1-0.7-0.2-0.9
			s-0.3-0.4-0.6-0.5c-0.2-0.1-0.5-0.2-0.8-0.2c-0.3,0-0.6-0.1-0.8-0.1c-0.7,0-1.4,0.1-1.9,0.4c-0.5,0.3-0.8,0.8-0.8,1.6H222
			c0-0.7,0.2-1.2,0.4-1.7c0.2-0.5,0.6-0.8,1-1.1c0.4-0.3,0.9-0.5,1.4-0.6c0.5-0.1,1.1-0.2,1.7-0.2c0.5,0,1,0,1.4,0.1
			s0.9,0.2,1.3,0.4c0.4,0.2,0.7,0.5,0.9,0.9c0.2,0.4,0.4,0.9,0.4,1.5v5.5c0,0.4,0,0.7,0.1,0.9c0,0.2,0.2,0.3,0.5,0.3
			c0.2,0,0.3,0,0.5-0.1V239.8z M228.9,234.3c-0.2,0.2-0.5,0.3-0.9,0.4c-0.4,0.1-0.7,0.1-1.1,0.2c-0.4,0-0.8,0.1-1.2,0.2
			c-0.4,0.1-0.8,0.2-1.1,0.3c-0.3,0.1-0.6,0.3-0.8,0.6c-0.2,0.3-0.3,0.6-0.3,1c0,0.3,0.1,0.5,0.2,0.7c0.1,0.2,0.3,0.4,0.5,0.5
			c0.2,0.1,0.4,0.2,0.7,0.3c0.2,0.1,0.5,0.1,0.8,0.1c0.6,0,1.1-0.1,1.5-0.2c0.4-0.2,0.8-0.4,1-0.6c0.3-0.2,0.5-0.5,0.6-0.8
			c0.1-0.3,0.2-0.5,0.2-0.8V234.3z"/>
		<path class="st0" d="M235.2,225v14.8h-1.8V225H235.2z"/>
		<path class="st0" d="M251.6,239.8v-1.5h0c-0.3,0.6-0.7,1-1.4,1.3c-0.6,0.3-1.3,0.4-2.1,0.4c-0.8,0-1.6-0.2-2.2-0.5
			c-0.6-0.3-1.1-0.7-1.5-1.2c-0.4-0.5-0.7-1.1-0.9-1.8c-0.2-0.7-0.3-1.4-0.3-2.2c0-0.8,0.1-1.5,0.3-2.2c0.2-0.7,0.5-1.3,0.9-1.8
			c0.4-0.5,0.9-0.9,1.5-1.2c0.6-0.3,1.3-0.4,2.2-0.4c0.3,0,0.6,0,0.9,0.1c0.3,0.1,0.6,0.1,1,0.3c0.3,0.1,0.6,0.3,0.9,0.5
			s0.5,0.5,0.7,0.8h0V225h1.8v14.8H251.6z M245.2,236c0.1,0.5,0.3,0.9,0.6,1.3c0.3,0.4,0.6,0.7,1,0.9c0.4,0.2,0.9,0.3,1.5,0.3
			c0.6,0,1.1-0.1,1.5-0.4c0.4-0.2,0.8-0.5,1-0.9c0.3-0.4,0.5-0.8,0.6-1.3c0.1-0.5,0.2-1,0.2-1.5c0-0.5-0.1-1-0.2-1.5
			c-0.1-0.5-0.3-0.9-0.6-1.3c-0.3-0.4-0.6-0.7-1-0.9c-0.4-0.2-0.9-0.3-1.6-0.3c-0.6,0-1.1,0.1-1.5,0.4c-0.4,0.2-0.7,0.5-1,0.9
			c-0.2,0.4-0.4,0.8-0.5,1.3c-0.1,0.5-0.2,1-0.2,1.5C245,235,245.1,235.5,245.2,236z"/>
		<path class="st0" d="M263.6,239.1c-0.8,0.6-1.8,0.9-3,0.9c-0.9,0-1.6-0.1-2.2-0.4c-0.6-0.3-1.2-0.7-1.6-1.2
			c-0.4-0.5-0.8-1.1-1-1.8s-0.3-1.4-0.4-2.3c0-0.8,0.1-1.6,0.4-2.2c0.2-0.7,0.6-1.3,1-1.8s1-0.9,1.6-1.2c0.6-0.3,1.3-0.4,2-0.4
			c1,0,1.7,0.2,2.4,0.6c0.6,0.4,1.1,0.9,1.5,1.5c0.4,0.6,0.6,1.3,0.8,2s0.2,1.4,0.2,2.1h-8c0,0.5,0,0.9,0.2,1.3
			c0.1,0.4,0.3,0.8,0.6,1.1c0.3,0.3,0.6,0.6,1.1,0.8s0.9,0.3,1.5,0.3c0.7,0,1.4-0.2,1.8-0.5c0.5-0.3,0.8-0.9,0.9-1.6h1.7
			C264.9,237.6,264.4,238.5,263.6,239.1z M263.1,232.2c-0.2-0.4-0.4-0.7-0.6-1c-0.3-0.3-0.6-0.5-1-0.6c-0.4-0.2-0.8-0.2-1.2-0.2
			c-0.5,0-0.9,0.1-1.2,0.2s-0.7,0.4-0.9,0.7c-0.3,0.3-0.5,0.6-0.6,1c-0.2,0.4-0.2,0.8-0.3,1.2h6.2
			C263.4,233,263.3,232.6,263.1,232.2z"/>
		<path class="st0" d="M271.6,226.6V225h11.9v1.7h-4.9v13.2h-2v-13.2H271.6z"/>
		<path class="st0" d="M290.6,239.1c-0.8,0.6-1.8,0.9-3,0.9c-0.9,0-1.6-0.1-2.2-0.4c-0.6-0.3-1.2-0.7-1.6-1.2
			c-0.4-0.5-0.8-1.1-1-1.8s-0.3-1.4-0.4-2.3c0-0.8,0.1-1.6,0.4-2.2c0.2-0.7,0.6-1.3,1-1.8s1-0.9,1.6-1.2c0.6-0.3,1.3-0.4,2-0.4
			c1,0,1.7,0.2,2.4,0.6c0.6,0.4,1.1,0.9,1.5,1.5c0.4,0.6,0.6,1.3,0.8,2s0.2,1.4,0.2,2.1h-8c0,0.5,0,0.9,0.2,1.3
			c0.1,0.4,0.3,0.8,0.6,1.1c0.3,0.3,0.6,0.6,1.1,0.8s0.9,0.3,1.5,0.3c0.7,0,1.4-0.2,1.8-0.5c0.5-0.3,0.8-0.9,0.9-1.6h1.7
			C291.9,237.6,291.4,238.5,290.6,239.1z M290.1,232.2c-0.2-0.4-0.4-0.7-0.6-1c-0.3-0.3-0.6-0.5-1-0.6c-0.4-0.2-0.8-0.2-1.2-0.2
			c-0.5,0-0.9,0.1-1.2,0.2s-0.7,0.4-0.9,0.7c-0.3,0.3-0.5,0.6-0.6,1c-0.2,0.4-0.2,0.8-0.3,1.2h6.2
			C290.4,233,290.3,232.6,290.1,232.2z"/>
		<path class="st0" d="M300.6,230.9c-0.4-0.4-1-0.6-1.8-0.6c-0.6,0-1.2,0.1-1.6,0.4s-0.8,0.5-1,0.9c-0.3,0.4-0.4,0.8-0.6,1.3
			c-0.1,0.5-0.2,1-0.2,1.6c0,0.5,0.1,1,0.2,1.5c0.1,0.5,0.3,0.9,0.6,1.3s0.6,0.7,1,0.9c0.4,0.2,0.9,0.3,1.4,0.3c0.9,0,1.6-0.2,2-0.7
			c0.5-0.5,0.8-1.1,0.9-1.9h1.8c-0.2,1.3-0.7,2.4-1.5,3.1c-0.8,0.7-1.9,1.1-3.3,1.1c-0.8,0-1.5-0.1-2.2-0.4
			c-0.6-0.3-1.2-0.6-1.6-1.1c-0.4-0.5-0.7-1.1-1-1.7s-0.3-1.4-0.3-2.2s0.1-1.6,0.3-2.3c0.2-0.7,0.5-1.3,0.9-1.8s1-0.9,1.6-1.2
			c0.6-0.3,1.4-0.4,2.2-0.4c0.6,0,1.2,0.1,1.7,0.2s1,0.4,1.4,0.7c0.4,0.3,0.7,0.7,1,1.2c0.3,0.5,0.4,1,0.5,1.7h-1.8
			C301.4,231.8,301.1,231.3,300.6,230.9z"/>
		<path class="st0" d="M307,229.1v1.7h0c0.7-1.3,1.9-2,3.5-2c0.7,0,1.3,0.1,1.8,0.3s0.9,0.5,1.1,0.8s0.5,0.8,0.6,1.2
			c0.1,0.5,0.2,1,0.2,1.6v7.1h-1.8v-7.3c0-0.7-0.2-1.2-0.6-1.6c-0.4-0.4-0.9-0.6-1.6-0.6c-0.5,0-1,0.1-1.4,0.2
			c-0.4,0.2-0.7,0.4-1,0.7c-0.3,0.3-0.5,0.7-0.6,1.1c-0.1,0.4-0.2,0.9-0.2,1.3v6.1h-1.8v-10.7H307z"/>
		<path class="st0" d="M316.5,232.2c0.2-0.7,0.6-1.3,1-1.8c0.4-0.5,1-0.9,1.6-1.2s1.4-0.4,2.2-0.4c0.9,0,1.6,0.1,2.3,0.4
			c0.6,0.3,1.2,0.7,1.6,1.2c0.4,0.5,0.8,1.1,1,1.8c0.2,0.7,0.3,1.4,0.3,2.2s-0.1,1.5-0.3,2.2c-0.2,0.7-0.6,1.3-1,1.8
			c-0.4,0.5-1,0.9-1.6,1.2c-0.6,0.3-1.4,0.4-2.3,0.4c-0.8,0-1.6-0.1-2.2-0.4c-0.7-0.3-1.2-0.7-1.6-1.2c-0.4-0.5-0.8-1.1-1-1.8
			c-0.2-0.7-0.3-1.4-0.3-2.2S316.3,232.9,316.5,232.2z M318.3,236.2c0.2,0.5,0.4,0.9,0.7,1.3s0.7,0.6,1.1,0.8
			c0.4,0.2,0.8,0.3,1.3,0.3s0.9-0.1,1.3-0.3c0.4-0.2,0.8-0.4,1.1-0.8c0.3-0.3,0.5-0.8,0.7-1.3c0.2-0.5,0.3-1.1,0.3-1.7
			s-0.1-1.2-0.3-1.7c-0.2-0.5-0.4-0.9-0.7-1.3c-0.3-0.3-0.7-0.6-1.1-0.8c-0.4-0.2-0.8-0.3-1.3-0.3s-0.9,0.1-1.3,0.3
			c-0.4,0.2-0.8,0.4-1.1,0.8s-0.5,0.8-0.7,1.3s-0.3,1.1-0.3,1.7S318.1,235.7,318.3,236.2z"/>
		<path class="st0" d="M330.4,225v14.8h-1.8V225H330.4z"/>
		<path class="st0" d="M332.8,232.2c0.2-0.7,0.6-1.3,1-1.8c0.4-0.5,1-0.9,1.6-1.2s1.4-0.4,2.2-0.4c0.9,0,1.6,0.1,2.3,0.4
			c0.6,0.3,1.2,0.7,1.6,1.2c0.4,0.5,0.8,1.1,1,1.8c0.2,0.7,0.3,1.4,0.3,2.2s-0.1,1.5-0.3,2.2c-0.2,0.7-0.6,1.3-1,1.8
			c-0.4,0.5-1,0.9-1.6,1.2c-0.6,0.3-1.4,0.4-2.3,0.4c-0.8,0-1.6-0.1-2.2-0.4c-0.7-0.3-1.2-0.7-1.6-1.2c-0.4-0.5-0.8-1.1-1-1.8
			c-0.2-0.7-0.3-1.4-0.3-2.2S332.6,232.9,332.8,232.2z M334.6,236.2c0.2,0.5,0.4,0.9,0.7,1.3s0.7,0.6,1.1,0.8
			c0.4,0.2,0.8,0.3,1.3,0.3s0.9-0.1,1.3-0.3c0.4-0.2,0.8-0.4,1.1-0.8c0.3-0.3,0.5-0.8,0.7-1.3c0.2-0.5,0.3-1.1,0.3-1.7
			s-0.1-1.2-0.3-1.7c-0.2-0.5-0.4-0.9-0.7-1.3c-0.3-0.3-0.7-0.6-1.1-0.8c-0.4-0.2-0.8-0.3-1.3-0.3s-0.9,0.1-1.3,0.3
			c-0.4,0.2-0.8,0.4-1.1,0.8s-0.5,0.8-0.7,1.3s-0.3,1.1-0.3,1.7S334.4,235.7,334.6,236.2z"/>
		<path class="st0" d="M353,242.8c-0.8,0.9-2.1,1.3-3.8,1.3c-0.5,0-1-0.1-1.5-0.2c-0.5-0.1-1-0.3-1.4-0.5c-0.4-0.2-0.8-0.6-1-1
			c-0.3-0.4-0.4-0.9-0.5-1.5h1.8c0,0.3,0.1,0.6,0.3,0.8s0.4,0.4,0.7,0.5c0.3,0.1,0.6,0.2,0.9,0.3c0.3,0.1,0.6,0.1,0.9,0.1
			c0.6,0,1.1-0.1,1.5-0.3c0.4-0.2,0.7-0.5,1-0.8c0.3-0.4,0.5-0.8,0.6-1.3c0.1-0.5,0.2-1,0.2-1.6V238h0c-0.3,0.7-0.8,1.2-1.4,1.5
			c-0.6,0.3-1.3,0.5-2,0.5c-0.8,0-1.5-0.1-2.1-0.4s-1.1-0.7-1.5-1.2c-0.4-0.5-0.7-1.1-0.9-1.7c-0.2-0.7-0.3-1.4-0.3-2.1
			c0-0.6,0.1-1.3,0.2-2c0.2-0.7,0.4-1.3,0.8-1.8c0.4-0.5,0.9-1,1.5-1.4c0.6-0.4,1.4-0.5,2.3-0.5c0.7,0,1.3,0.1,1.9,0.4
			c0.6,0.3,1,0.7,1.3,1.3h0v-1.5h1.7v9.8C354.2,240.7,353.8,242,353,242.8z M350.8,238c0.4-0.2,0.7-0.6,1-1c0.2-0.4,0.4-0.8,0.6-1.3
			c0.1-0.5,0.2-1,0.2-1.5c0-0.5-0.1-0.9-0.2-1.4c-0.1-0.5-0.3-0.9-0.5-1.2c-0.2-0.4-0.6-0.7-0.9-0.9s-0.9-0.3-1.4-0.3
			c-0.6,0-1.1,0.1-1.5,0.3c-0.4,0.2-0.7,0.5-1,0.9c-0.3,0.4-0.4,0.8-0.6,1.2c-0.1,0.5-0.2,1-0.2,1.5c0,0.5,0,1,0.1,1.5
			s0.3,0.9,0.5,1.3c0.2,0.4,0.5,0.7,0.9,1c0.4,0.2,0.9,0.4,1.5,0.4S350.3,238.3,350.8,238z"/>
		<path class="st0" d="M356.8,227.1V225h1.8v2.2H356.8z M358.6,229.1v10.7h-1.8v-10.7H358.6z"/>
		<path class="st0" d="M370.8,239.8c-0.3,0.2-0.7,0.3-1.3,0.3c-0.5,0-0.8-0.1-1.1-0.4c-0.3-0.3-0.4-0.7-0.4-1.3
			c-0.5,0.6-1,1-1.7,1.3c-0.6,0.3-1.3,0.4-2.1,0.4c-0.5,0-0.9-0.1-1.4-0.2c-0.4-0.1-0.8-0.3-1.1-0.5c-0.3-0.2-0.6-0.5-0.8-0.9
			c-0.2-0.4-0.3-0.8-0.3-1.4c0-0.6,0.1-1.1,0.3-1.5c0.2-0.4,0.5-0.7,0.8-0.9s0.7-0.4,1.2-0.6c0.4-0.1,0.9-0.2,1.3-0.3
			c0.5-0.1,0.9-0.2,1.4-0.2s0.8-0.1,1.2-0.2c0.3-0.1,0.6-0.2,0.8-0.4c0.2-0.2,0.3-0.4,0.3-0.8c0-0.4-0.1-0.7-0.2-0.9
			s-0.3-0.4-0.6-0.5c-0.2-0.1-0.5-0.2-0.8-0.2c-0.3,0-0.6-0.1-0.8-0.1c-0.7,0-1.4,0.1-1.9,0.4c-0.5,0.3-0.8,0.8-0.8,1.6h-1.8
			c0-0.7,0.2-1.2,0.4-1.7c0.2-0.5,0.6-0.8,1-1.1c0.4-0.3,0.9-0.5,1.4-0.6c0.5-0.1,1.1-0.2,1.7-0.2c0.5,0,1,0,1.4,0.1
			s0.9,0.2,1.3,0.4c0.4,0.2,0.7,0.5,0.9,0.9c0.2,0.4,0.4,0.9,0.4,1.5v5.5c0,0.4,0,0.7,0.1,0.9c0,0.2,0.2,0.3,0.5,0.3
			c0.2,0,0.3,0,0.5-0.1V239.8z M367.9,234.3c-0.2,0.2-0.5,0.3-0.9,0.4c-0.4,0.1-0.7,0.1-1.1,0.2c-0.4,0-0.8,0.1-1.2,0.2
			c-0.4,0.1-0.8,0.2-1.1,0.3c-0.3,0.1-0.6,0.3-0.8,0.6c-0.2,0.3-0.3,0.6-0.3,1c0,0.3,0.1,0.5,0.2,0.7c0.1,0.2,0.3,0.4,0.5,0.5
			c0.2,0.1,0.4,0.2,0.7,0.3c0.2,0.1,0.5,0.1,0.8,0.1c0.6,0,1.1-0.1,1.5-0.2c0.4-0.2,0.8-0.4,1-0.6c0.3-0.2,0.5-0.5,0.6-0.8
			c0.1-0.3,0.2-0.5,0.2-0.8V234.3z"/>
		<path class="st0" d="M385.8,239.1c-0.8,0.6-1.8,0.9-3,0.9c-0.9,0-1.6-0.1-2.2-0.4c-0.6-0.3-1.2-0.7-1.6-1.2
			c-0.4-0.5-0.8-1.1-1-1.8s-0.3-1.4-0.4-2.3c0-0.8,0.1-1.6,0.4-2.2c0.2-0.7,0.6-1.3,1-1.8s1-0.9,1.6-1.2c0.6-0.3,1.3-0.4,2-0.4
			c1,0,1.7,0.2,2.4,0.6c0.6,0.4,1.1,0.9,1.5,1.5c0.4,0.6,0.6,1.3,0.8,2s0.2,1.4,0.2,2.1h-8c0,0.5,0,0.9,0.2,1.3
			c0.1,0.4,0.3,0.8,0.6,1.1c0.3,0.3,0.6,0.6,1.1,0.8s0.9,0.3,1.5,0.3c0.7,0,1.4-0.2,1.8-0.5c0.5-0.3,0.8-0.9,0.9-1.6h1.7
			C387.1,237.6,386.6,238.5,385.8,239.1z M385.4,232.2c-0.2-0.4-0.4-0.7-0.6-1c-0.3-0.3-0.6-0.5-1-0.6c-0.4-0.2-0.8-0.2-1.2-0.2
			c-0.5,0-0.9,0.1-1.2,0.2s-0.7,0.4-0.9,0.7c-0.3,0.3-0.5,0.6-0.6,1c-0.2,0.4-0.2,0.8-0.3,1.2h6.2
			C385.6,233,385.5,232.6,385.4,232.2z"/>
		<path class="st0" d="M402.9,227c-0.7-0.5-1.5-0.7-2.5-0.7c-0.4,0-0.8,0-1.2,0.1c-0.4,0.1-0.8,0.2-1.1,0.4
			c-0.3,0.2-0.6,0.5-0.7,0.8c-0.2,0.3-0.3,0.7-0.3,1.2c0,0.5,0.1,0.8,0.4,1.1c0.3,0.3,0.6,0.5,1.1,0.7c0.5,0.2,1,0.3,1.5,0.4
			c0.6,0.1,1.1,0.2,1.7,0.4s1.2,0.3,1.7,0.5c0.6,0.2,1.1,0.4,1.5,0.8c0.5,0.3,0.8,0.7,1.1,1.2c0.3,0.5,0.4,1.1,0.4,1.8
			c0,0.8-0.2,1.5-0.5,2c-0.4,0.6-0.8,1-1.4,1.4c-0.6,0.4-1.2,0.6-1.9,0.8c-0.7,0.2-1.4,0.2-2,0.2c-0.8,0-1.6-0.1-2.4-0.3
			s-1.4-0.5-2-0.9s-1-1-1.3-1.6c-0.3-0.7-0.5-1.4-0.5-2.3h1.9c0,0.6,0.1,1.2,0.4,1.6c0.2,0.5,0.6,0.8,1,1.1s0.9,0.5,1.4,0.6
			c0.5,0.1,1.1,0.2,1.6,0.2c0.4,0,0.9,0,1.3-0.1c0.5-0.1,0.9-0.2,1.2-0.4s0.7-0.5,0.9-0.8c0.2-0.3,0.3-0.8,0.3-1.3
			c0-0.5-0.1-0.9-0.4-1.2c-0.3-0.3-0.6-0.6-1.1-0.8c-0.5-0.2-1-0.4-1.5-0.5s-1.1-0.3-1.7-0.4c-0.6-0.1-1.2-0.3-1.7-0.5
			c-0.6-0.2-1.1-0.4-1.5-0.7s-0.8-0.7-1.1-1.1c-0.3-0.5-0.4-1-0.4-1.7c0-0.7,0.2-1.4,0.5-1.9c0.3-0.5,0.7-1,1.2-1.4s1.1-0.6,1.7-0.8
			s1.3-0.3,2-0.3c0.8,0,1.5,0.1,2.1,0.3c0.7,0.2,1.2,0.5,1.7,0.9c0.5,0.4,0.9,0.9,1.2,1.5s0.4,1.3,0.5,2.1H404
			C403.9,228.2,403.5,227.5,402.9,227z"/>
		<path class="st0" d="M418.1,239.8c-0.3,0.2-0.7,0.3-1.3,0.3c-0.5,0-0.8-0.1-1.1-0.4c-0.3-0.3-0.4-0.7-0.4-1.3
			c-0.5,0.6-1,1-1.7,1.3c-0.6,0.3-1.3,0.4-2.1,0.4c-0.5,0-0.9-0.1-1.4-0.2c-0.4-0.1-0.8-0.3-1.1-0.5c-0.3-0.2-0.6-0.5-0.8-0.9
			c-0.2-0.4-0.3-0.8-0.3-1.4c0-0.6,0.1-1.1,0.3-1.5c0.2-0.4,0.5-0.7,0.8-0.9s0.7-0.4,1.2-0.6c0.4-0.1,0.9-0.2,1.3-0.3
			c0.5-0.1,0.9-0.2,1.4-0.2s0.8-0.1,1.2-0.2c0.3-0.1,0.6-0.2,0.8-0.4c0.2-0.2,0.3-0.4,0.3-0.8c0-0.4-0.1-0.7-0.2-0.9
			s-0.3-0.4-0.6-0.5c-0.2-0.1-0.5-0.2-0.8-0.2c-0.3,0-0.6-0.1-0.8-0.1c-0.7,0-1.4,0.1-1.9,0.4c-0.5,0.3-0.8,0.8-0.8,1.6h-1.8
			c0-0.7,0.2-1.2,0.4-1.7c0.2-0.5,0.6-0.8,1-1.1c0.4-0.3,0.9-0.5,1.4-0.6c0.5-0.1,1.1-0.2,1.7-0.2c0.5,0,1,0,1.4,0.1
			s0.9,0.2,1.3,0.4c0.4,0.2,0.7,0.5,0.9,0.9c0.2,0.4,0.4,0.9,0.4,1.5v5.5c0,0.4,0,0.7,0.1,0.9c0,0.2,0.2,0.3,0.5,0.3
			c0.2,0,0.3,0,0.5-0.1V239.8z M415.2,234.3c-0.2,0.2-0.5,0.3-0.9,0.4c-0.4,0.1-0.7,0.1-1.1,0.2c-0.4,0-0.8,0.1-1.2,0.2
			c-0.4,0.1-0.8,0.2-1.1,0.3c-0.3,0.1-0.6,0.3-0.8,0.6c-0.2,0.3-0.3,0.6-0.3,1c0,0.3,0.1,0.5,0.2,0.7c0.1,0.2,0.3,0.4,0.5,0.5
			c0.2,0.1,0.4,0.2,0.7,0.3c0.2,0.1,0.5,0.1,0.8,0.1c0.6,0,1.1-0.1,1.5-0.2c0.4-0.2,0.8-0.4,1-0.6c0.3-0.2,0.5-0.5,0.6-0.8
			c0.1-0.3,0.2-0.5,0.2-0.8V234.3z"/>
		<path class="st0" d="M426.8,239.8v-1.7h0c-0.4,0.7-0.9,1.2-1.4,1.5c-0.6,0.3-1.3,0.5-2.1,0.5c-0.7,0-1.3-0.1-1.8-0.3
			c-0.5-0.2-0.9-0.5-1.1-0.8c-0.3-0.3-0.5-0.8-0.6-1.2c-0.1-0.5-0.2-1-0.2-1.6v-7.1h1.8v7.3c0,0.7,0.2,1.2,0.6,1.6
			c0.4,0.4,0.9,0.6,1.6,0.6c0.5,0,1-0.1,1.4-0.2c0.4-0.2,0.7-0.4,1-0.7c0.3-0.3,0.5-0.7,0.6-1.1c0.1-0.4,0.2-0.9,0.2-1.3v-6.1h1.8
			v10.7H426.8z M424.9,223.8l-2,3.4h1.3l2.9-3.4H424.9z"/>
		<path class="st0" d="M438.9,239.8v-1.5h0c-0.3,0.6-0.7,1-1.4,1.3c-0.6,0.3-1.3,0.4-2.1,0.4c-0.8,0-1.6-0.2-2.2-0.5
			c-0.6-0.3-1.1-0.7-1.5-1.2c-0.4-0.5-0.7-1.1-0.9-1.8c-0.2-0.7-0.3-1.4-0.3-2.2c0-0.8,0.1-1.5,0.3-2.2c0.2-0.7,0.5-1.3,0.9-1.8
			c0.4-0.5,0.9-0.9,1.5-1.2c0.6-0.3,1.3-0.4,2.2-0.4c0.3,0,0.6,0,0.9,0.1c0.3,0.1,0.6,0.1,1,0.3c0.3,0.1,0.6,0.3,0.9,0.5
			s0.5,0.5,0.7,0.8h0V225h1.8v14.8H438.9z M432.6,236c0.1,0.5,0.3,0.9,0.6,1.3c0.3,0.4,0.6,0.7,1,0.9c0.4,0.2,0.9,0.3,1.5,0.3
			c0.6,0,1.1-0.1,1.5-0.4c0.4-0.2,0.8-0.5,1-0.9c0.3-0.4,0.5-0.8,0.6-1.3c0.1-0.5,0.2-1,0.2-1.5c0-0.5-0.1-1-0.2-1.5
			c-0.1-0.5-0.3-0.9-0.6-1.3c-0.3-0.4-0.6-0.7-1-0.9c-0.4-0.2-0.9-0.3-1.6-0.3c-0.6,0-1.1,0.1-1.5,0.4c-0.4,0.2-0.7,0.5-1,0.9
			c-0.2,0.4-0.4,0.8-0.5,1.3c-0.1,0.5-0.2,1-0.2,1.5C432.4,235,432.5,235.5,432.6,236z"/>
		<path class="st0" d="M450.9,239.1c-0.8,0.6-1.8,0.9-3,0.9c-0.9,0-1.6-0.1-2.2-0.4c-0.6-0.3-1.2-0.7-1.6-1.2
			c-0.4-0.5-0.8-1.1-1-1.8s-0.3-1.4-0.4-2.3c0-0.8,0.1-1.6,0.4-2.2c0.2-0.7,0.6-1.3,1-1.8s1-0.9,1.6-1.2c0.6-0.3,1.3-0.4,2-0.4
			c1,0,1.7,0.2,2.4,0.6c0.6,0.4,1.1,0.9,1.5,1.5c0.4,0.6,0.6,1.3,0.8,2s0.2,1.4,0.2,2.1h-8c0,0.5,0,0.9,0.2,1.3
			c0.1,0.4,0.3,0.8,0.6,1.1c0.3,0.3,0.6,0.6,1.1,0.8s0.9,0.3,1.5,0.3c0.7,0,1.4-0.2,1.8-0.5c0.5-0.3,0.8-0.9,0.9-1.6h1.7
			C452.3,237.6,451.7,238.5,450.9,239.1z M450.5,232.2c-0.2-0.4-0.4-0.7-0.6-1c-0.3-0.3-0.6-0.5-1-0.6c-0.4-0.2-0.8-0.2-1.2-0.2
			c-0.5,0-0.9,0.1-1.2,0.2s-0.7,0.4-0.9,0.7c-0.3,0.3-0.5,0.6-0.6,1c-0.2,0.4-0.2,0.8-0.3,1.2h6.2
			C450.8,233,450.7,232.6,450.5,232.2z"/>
	</g>
	<circle class="st1" cx="78.6" cy="123.9" r="47.8"/>
	<path class="st0" d="M447.9,90.9c-11.1,0-22.2,0-33.3,0c-0.4,0-0.8,0-1.2,0c-1.5,0-2.6-1.3-2.6-2.6c0-0.4,0-0.8,0-1.2v-8.4
		c0-5.7-0.5-9.3-1.5-10.9c-1-1.6-2.7-2.3-5.1-2.3c-2.6,0-4.5,1-5.8,3.2c-1.3,2.1-2,5.3-2,9.5c0,5.5,0.7,9.6,2.2,12.4
		c1.4,2.8,5.5,6.1,12.1,10.1c19,11.3,31,20.6,36,27.8c5,7.2,7.4,18.9,7.4,35c0,11.7-1.4,20.4-4.1,25.9c-2.7,5.6-8,10.2-15.9,14
		c-7.9,3.7-17,5.6-27.4,5.6c-11.4,0-21.2-2.2-29.3-6.5c-8.1-4.3-13.4-9.8-15.9-16.5c-2.5-6.7-3.7-16.2-3.7-28.6c0-2.7,0-5.4,0-8.1
		c-0.1-0.9,0.7-2.6,2.6-2.6c11.5,0,23,0,34.5,0c0.8-0.1,2.6,0.6,2.6,2.6v17.4c0,6.2,0.6,10.1,1.7,11.9c1.1,1.7,3.1,2.6,6,2.6
		s5-1.1,6.3-3.4c1.4-2.2,2.1-5.6,2.1-10c0-9.7-1.3-16-4-19c-2.7-3-9.4-7.9-20-14.9c-10.6-7.1-17.7-12.2-21.2-15.4
		c-3.4-3.2-6.3-7.6-8.6-13.2c-2.3-5.6-3.4-12.8-3.4-21.5c0-12.6,1.6-21.8,4.8-27.6c3.2-5.8,8.4-10.4,15.6-13.7
		c7.2-3.2,15.8-4.9,26-4.9c11.1,0,20.6,1.8,28.4,5.4c7.8,3.6,13,8.1,15.6,13.6c2.5,5.4,3.8,14.7,3.8,27.8c0,1.3,0,2.6,0,3.9
		C450.5,89.4,449.6,91,447.9,90.9"/>
	<path class="st0" d="M348.5,40.4c0,9.6,0,19.3,0,28.9c0,1.4-1.3,2.8-2.7,2.7H322c0,44.8,0,89.6,0,134.4c-0.1,1.9-1.6,2.7-2.7,2.7
		c-13.1,0-26.1,0-39.2,0c-1.4,0-2.7-1.2-2.7-2.7V72c-7.9,0-15.8,0-23.7,0c-1.3,0-2.7-1-2.7-2.7c0-9.6,0-19.3,0-28.9
		c0-1.8,1.4-2.7,2.7-2.7c30.7,0,61.3,0,92,0C347.8,37.8,348.5,39.5,348.5,40.4"/>
	<path class="st0" d="M178.5,142.3c0,21.4,0,42.7,0,64.1c-0.1,2.1-1.8,2.7-2.7,2.7c-10.6,0-21.3,0-31.9,0c-1,0-2.7-0.8-2.7-2.7
		v-45.7L178.5,142.3z M240.8,40.4c0,55.3,0,110.6,0,166c0,1-0.8,2.7-2.7,2.7c-11.5,0-23,0-34.5,0c-0.9,0-1.9-0.6-2.3-1.8l-19.8-66.4
		c9.8-4.9,19.7-9.7,29.5-14.6c2-1,1.9-4.5,0-5.5l-69.6-34.2c0-15.4,0-30.8,0-46.2c0-1.2,0.8-2.7,2.7-2.7c10.9,0,21.7,0,32.6,0
		c1.1,0,2.2,0.7,2.6,1.8l24.4,75.4c0-24.8,0-49.7,0-74.5c0-1.6,1.3-2.7,2.7-2.7c10.6,0,21.3,0,31.9,0
		C239.8,37.7,240.8,39.1,240.8,40.4z"/>
	<path class="st2" d="M78.4,59.9c40.7,20,85.7,41.9,126.4,61.9c1.4,0.9,1,3,0,3.5L78.4,188v-12.8c28.6-0.5,51.7-23.3,51.7-51.4
		c0-28.1-23.1-50.9-51.7-51.4V59.9z"/>
	<path class="st3" d="M103,113.9l-10.4,0c-2.3,0-4.1-1.8-4.1-4.1l0-10.4c0-2.3-1.8-4.1-4.1-4.1l-11.6,0c-2.3,0-4.1,1.8-4.1,4.1
		l0,10.4c0,2.3-1.8,4.1-4.1,4.1l-10.4,0c-2.3,0-4.1,1.8-4.1,4.1l0,11.6c0,2.3,1.8,4.1,4.1,4.1l10.4,0c2.3,0,4.1,1.8,4.1,4.1l0,10.4
		c0,2.3,1.8,4.1,4.1,4.1l11.6,0c2.3,0,4.1-1.8,4.1-4.1l0-10.4c0-2.3,1.8-4.1,4.1-4.1l10.4,0c2.3,0,4.1-1.8,4.1-4.1l0-11.6
		C107.2,115.8,105.3,113.9,103,113.9z"/>
	<g>
		<path class="st0" d="M81.4,57.2l42,20.6l0-37.4c0-0.6-0.4-2.6-2.7-2.7c-13.2,0-26.4,0-39.6,0c-1.3,0-2.7,0.9-2.7,2.7
			c0,5.1,0,10.2,0,15.3L81.4,57.2z"/>
		<path class="st0" d="M78.4,192.2c0,4.7,0,9.5,0,14.2c0,1.9,1.8,2.8,2.7,2.7c13.2,0,26.4,0,39.6,0c1.6,0,2.7-1.3,2.7-2.7
			c0-12.2,0-24.4,0-36.6L78.4,192.2z"/>
	</g>
</g>
</svg>
